<svg width="512" height="512" viewBox="0 0 512 512" fill="none" xmlns="http://www.w3.org/2000/svg">
<g clip-path="url(#clip0_1_587)">
<path d="M356.327 74.3509C347.067 31.0365 308.827 0.0626475 264.533 0H247.467C203.174 0.0626475 164.934 31.0365 155.674 74.3509C61.901 119.699 10.2508 222.352 29.7208 324.679C49.1908 427.005 134.931 503.516 238.805 511.258H238.933H238.993C244.617 511.667 250.274 511.949 256 511.949C261.726 511.949 267.384 511.667 273.007 511.258H273.067H273.195C377.069 503.516 462.809 427.005 482.279 324.679C501.749 222.352 450.099 119.699 356.327 74.3509ZM264.533 409.6H247.467C167.386 409.511 102.489 344.614 102.4 264.533V204.8C102.4 200.087 106.221 196.267 110.933 196.267C115.646 196.267 119.467 200.087 119.467 204.8V264.533C119.547 335.193 176.807 392.453 247.467 392.533H264.533C335.193 392.453 392.454 335.193 392.533 264.533V204.8C392.533 200.087 396.354 196.267 401.067 196.267C405.78 196.267 409.6 200.087 409.6 204.8V264.533C409.511 344.614 344.615 409.511 264.533 409.6ZM170.667 247.467V221.867H341.333V264.533C341.286 306.929 306.929 341.286 264.533 341.333H247.467C205.071 341.286 170.714 306.929 170.667 264.533V247.467ZM341.333 204.8H170.667V179.2H341.333V204.8ZM153.6 238.933H136.533V221.867H153.6V238.933ZM375.467 264.533C375.396 325.771 325.771 375.396 264.533 375.467H247.467C186.229 375.396 136.604 325.771 136.533 264.533V256H153.6V264.533C153.661 316.349 195.651 358.339 247.467 358.4H264.533C316.349 358.339 358.339 316.349 358.4 264.533V256H375.467V264.533ZM375.467 238.933H358.4V221.867H375.467V238.933ZM247.467 17.0667H264.533C306.929 17.1137 341.286 51.4707 341.333 93.8667V162.133H170.667V93.8667C170.714 51.4707 205.071 17.1137 247.467 17.0667ZM42.6668 281.6C42.8184 203.688 85.3134 132.019 153.6 94.5067V204.8H136.533C136.533 190.662 125.072 179.2 110.933 179.2C96.795 179.2 85.3334 190.662 85.3334 204.8V264.533C85.4377 347.428 147.976 416.93 230.4 425.754V493.346C123.34 480.279 42.8158 389.454 42.6668 281.6ZM247.467 494.72V426.667H264.533V494.72C261.7 494.831 258.859 494.933 256 494.933C253.141 494.933 250.3 494.831 247.467 494.72ZM281.6 493.346V425.754C364.024 416.93 426.563 347.428 426.667 264.533V204.8C426.667 190.662 415.205 179.2 401.067 179.2C386.928 179.2 375.467 190.662 375.467 204.8H358.4V94.5067C439.73 138.988 483.011 230.913 465.483 321.94C447.955 412.968 373.633 482.247 281.6 493.346Z" fill="url(#paint0_linear_1_587)"/>
<path d="M196.267 85.3333C200.98 85.3333 204.8 81.5128 204.8 76.7999C204.8 72.0871 200.98 68.2666 196.267 68.2666C191.554 68.2666 187.733 72.0871 187.733 76.7999C187.733 81.5128 191.554 85.3333 196.267 85.3333Z" fill="url(#paint1_linear_1_587)"/>
<path d="M221.867 102.4C226.58 102.4 230.4 98.5794 230.4 93.8666C230.4 89.1538 226.58 85.3333 221.867 85.3333C217.154 85.3333 213.333 89.1538 213.333 93.8666C213.333 98.5794 217.154 102.4 221.867 102.4Z" fill="url(#paint2_linear_1_587)"/>
<path d="M221.867 136.533C226.58 136.533 230.4 132.713 230.4 128C230.4 123.287 226.58 119.467 221.867 119.467C217.154 119.467 213.333 123.287 213.333 128C213.333 132.713 217.154 136.533 221.867 136.533Z" fill="url(#paint3_linear_1_587)"/>
<path d="M221.867 68.2666C226.58 68.2666 230.4 64.4461 230.4 59.7333C230.4 55.0205 226.58 51.2 221.867 51.2C217.154 51.2 213.333 55.0205 213.333 59.7333C213.333 64.4461 217.154 68.2666 221.867 68.2666Z" fill="url(#paint4_linear_1_587)"/>
<path d="M256 51.2C260.713 51.2 264.533 47.3795 264.533 42.6666C264.533 37.9538 260.713 34.1333 256 34.1333C251.287 34.1333 247.467 37.9538 247.467 42.6666C247.467 47.3795 251.287 51.2 256 51.2Z" fill="url(#paint5_linear_1_587)"/>
<path d="M196.267 119.467C200.98 119.467 204.8 115.646 204.8 110.933C204.8 106.22 200.98 102.4 196.267 102.4C191.554 102.4 187.733 106.22 187.733 110.933C187.733 115.646 191.554 119.467 196.267 119.467Z" fill="url(#paint6_linear_1_587)"/>
<path d="M196.267 153.6C200.98 153.6 204.8 149.78 204.8 145.067C204.8 140.354 200.98 136.533 196.267 136.533C191.554 136.533 187.733 140.354 187.733 145.067C187.733 149.78 191.554 153.6 196.267 153.6Z" fill="url(#paint7_linear_1_587)"/>
<path d="M315.734 85.3333C320.446 85.3333 324.267 81.5128 324.267 76.7999C324.267 72.0871 320.446 68.2666 315.734 68.2666C311.021 68.2666 307.2 72.0871 307.2 76.7999C307.2 81.5128 311.021 85.3333 315.734 85.3333Z" fill="url(#paint8_linear_1_587)"/>
<path d="M290.133 102.4C294.846 102.4 298.667 98.5794 298.667 93.8666C298.667 89.1538 294.846 85.3333 290.133 85.3333C285.421 85.3333 281.6 89.1538 281.6 93.8666C281.6 98.5794 285.421 102.4 290.133 102.4Z" fill="url(#paint9_linear_1_587)"/>
<path d="M290.133 136.533C294.846 136.533 298.667 132.713 298.667 128C298.667 123.287 294.846 119.467 290.133 119.467C285.421 119.467 281.6 123.287 281.6 128C281.6 132.713 285.421 136.533 290.133 136.533Z" fill="url(#paint10_linear_1_587)"/>
<path d="M290.133 68.2666C294.846 68.2666 298.667 64.4461 298.667 59.7333C298.667 55.0205 294.846 51.2 290.133 51.2C285.421 51.2 281.6 55.0205 281.6 59.7333C281.6 64.4461 285.421 68.2666 290.133 68.2666Z" fill="url(#paint11_linear_1_587)"/>
<path d="M315.734 119.467C320.446 119.467 324.267 115.646 324.267 110.933C324.267 106.22 320.446 102.4 315.734 102.4C311.021 102.4 307.2 106.22 307.2 110.933C307.2 115.646 311.021 119.467 315.734 119.467Z" fill="url(#paint12_linear_1_587)"/>
<path d="M315.734 153.6C320.446 153.6 324.267 149.78 324.267 145.067C324.267 140.354 320.446 136.533 315.734 136.533C311.021 136.533 307.2 140.354 307.2 145.067C307.2 149.78 311.021 153.6 315.734 153.6Z" fill="url(#paint13_linear_1_587)"/>
<path d="M256 85.3333C260.713 85.3333 264.533 81.5128 264.533 76.7999C264.533 72.0871 260.713 68.2666 256 68.2666C251.287 68.2666 247.467 72.0871 247.467 76.7999C247.467 81.5128 251.287 85.3333 256 85.3333Z" fill="url(#paint14_linear_1_587)"/>
<path d="M256 119.467C260.713 119.467 264.533 115.646 264.533 110.933C264.533 106.22 260.713 102.4 256 102.4C251.287 102.4 247.467 106.22 247.467 110.933C247.467 115.646 251.287 119.467 256 119.467Z" fill="url(#paint15_linear_1_587)"/>
<path d="M256 153.6C260.713 153.6 264.533 149.78 264.533 145.067C264.533 140.354 260.713 136.533 256 136.533C251.287 136.533 247.467 140.354 247.467 145.067C247.467 149.78 251.287 153.6 256 153.6Z" fill="url(#paint16_linear_1_587)"/>
</g>
<defs>
<linearGradient id="paint0_linear_1_587" x1="-122.5" y1="-28" x2="428.5" y2="605.5" gradientUnits="userSpaceOnUse">
<stop stop-color="#FE226A"/>
<stop offset="1" stop-color="#7750E7"/>
</linearGradient>
<linearGradient id="paint1_linear_1_587" x1="182.245" y1="67.3332" x2="200.25" y2="90.3358" gradientUnits="userSpaceOnUse">
<stop stop-color="#FE226A"/>
<stop offset="1" stop-color="#7750E7"/>
</linearGradient>
<linearGradient id="paint2_linear_1_587" x1="207.846" y1="84.3998" x2="225.85" y2="107.402" gradientUnits="userSpaceOnUse">
<stop stop-color="#FE226A"/>
<stop offset="1" stop-color="#7750E7"/>
</linearGradient>
<linearGradient id="paint3_linear_1_587" x1="207.846" y1="118.533" x2="225.85" y2="141.536" gradientUnits="userSpaceOnUse">
<stop stop-color="#FE226A"/>
<stop offset="1" stop-color="#7750E7"/>
</linearGradient>
<linearGradient id="paint4_linear_1_587" x1="207.846" y1="50.2665" x2="225.85" y2="73.2692" gradientUnits="userSpaceOnUse">
<stop stop-color="#FE226A"/>
<stop offset="1" stop-color="#7750E7"/>
</linearGradient>
<linearGradient id="paint5_linear_1_587" x1="241.979" y1="33.1999" x2="259.983" y2="56.2025" gradientUnits="userSpaceOnUse">
<stop stop-color="#FE226A"/>
<stop offset="1" stop-color="#7750E7"/>
</linearGradient>
<linearGradient id="paint6_linear_1_587" x1="182.245" y1="101.466" x2="200.25" y2="124.469" gradientUnits="userSpaceOnUse">
<stop stop-color="#FE226A"/>
<stop offset="1" stop-color="#7750E7"/>
</linearGradient>
<linearGradient id="paint7_linear_1_587" x1="182.245" y1="135.6" x2="200.25" y2="158.603" gradientUnits="userSpaceOnUse">
<stop stop-color="#FE226A"/>
<stop offset="1" stop-color="#7750E7"/>
</linearGradient>
<linearGradient id="paint8_linear_1_587" x1="301.712" y1="67.3332" x2="319.717" y2="90.3358" gradientUnits="userSpaceOnUse">
<stop stop-color="#FE226A"/>
<stop offset="1" stop-color="#7750E7"/>
</linearGradient>
<linearGradient id="paint9_linear_1_587" x1="276.112" y1="84.3998" x2="294.117" y2="107.402" gradientUnits="userSpaceOnUse">
<stop stop-color="#FE226A"/>
<stop offset="1" stop-color="#7750E7"/>
</linearGradient>
<linearGradient id="paint10_linear_1_587" x1="276.112" y1="118.533" x2="294.117" y2="141.536" gradientUnits="userSpaceOnUse">
<stop stop-color="#FE226A"/>
<stop offset="1" stop-color="#7750E7"/>
</linearGradient>
<linearGradient id="paint11_linear_1_587" x1="276.112" y1="50.2665" x2="294.117" y2="73.2692" gradientUnits="userSpaceOnUse">
<stop stop-color="#FE226A"/>
<stop offset="1" stop-color="#7750E7"/>
</linearGradient>
<linearGradient id="paint12_linear_1_587" x1="301.712" y1="101.466" x2="319.717" y2="124.469" gradientUnits="userSpaceOnUse">
<stop stop-color="#FE226A"/>
<stop offset="1" stop-color="#7750E7"/>
</linearGradient>
<linearGradient id="paint13_linear_1_587" x1="301.712" y1="135.6" x2="319.717" y2="158.603" gradientUnits="userSpaceOnUse">
<stop stop-color="#FE226A"/>
<stop offset="1" stop-color="#7750E7"/>
</linearGradient>
<linearGradient id="paint14_linear_1_587" x1="241.979" y1="67.3332" x2="259.983" y2="90.3358" gradientUnits="userSpaceOnUse">
<stop stop-color="#FE226A"/>
<stop offset="1" stop-color="#7750E7"/>
</linearGradient>
<linearGradient id="paint15_linear_1_587" x1="241.979" y1="101.466" x2="259.983" y2="124.469" gradientUnits="userSpaceOnUse">
<stop stop-color="#FE226A"/>
<stop offset="1" stop-color="#7750E7"/>
</linearGradient>
<linearGradient id="paint16_linear_1_587" x1="241.979" y1="135.6" x2="259.983" y2="158.603" gradientUnits="userSpaceOnUse">
<stop stop-color="#FE226A"/>
<stop offset="1" stop-color="#7750E7"/>
</linearGradient>
<clipPath id="clip0_1_587">
<rect width="512" height="512" fill="white"/>
</clipPath>
</defs>
</svg>
