<svg width="484" height="483" viewBox="0 0 484 483" fill="none" xmlns="http://www.w3.org/2000/svg">
<g clip-path="url(#clip0_6_24)">
<path d="M98.839 320.8C146.439 377.7 203.739 422.5 269.139 454.2C294.039 466 327.339 480 364.439 482.4C366.739 482.5 368.939 482.6 371.239 482.6C396.139 482.6 416.139 474 432.439 456.3C432.539 456.2 432.739 456 432.839 455.8C438.639 448.8 445.239 442.5 452.139 435.8C456.839 431.3 461.639 426.6 466.239 421.8C487.539 399.6 487.539 371.4 466.039 349.9L405.939 289.8C395.739 279.2 383.539 273.6 370.739 273.6C357.939 273.6 345.639 279.2 335.139 289.7L299.339 325.5C296.039 323.6 292.639 321.9 289.439 320.3C285.439 318.3 281.739 316.4 278.439 314.3C245.839 293.6 216.239 266.6 187.939 231.9C173.639 213.8 164.039 198.6 157.339 183.1C166.739 174.6 175.539 165.7 184.039 157C187.039 153.9 190.139 150.8 193.239 147.7C204.039 136.9 209.839 124.4 209.839 111.7C209.839 99 204.139 86.5 193.239 75.7L163.439 45.9C159.939 42.4 156.639 39 153.239 35.5C146.639 28.7 139.739 21.7 132.939 15.4C122.639 5.3 110.539 0 97.739 0C85.039 0 72.839 5.3 62.139 15.5L24.739 52.9C11.139 66.5 3.43901 83 1.83901 102.1C-0.0609876 126 4.33901 151.4 15.739 182.1C33.239 229.6 59.639 273.7 98.839 320.8ZM26.239 104.2C27.439 90.9 32.539 79.8 42.139 70.2L79.339 33C85.139 27.4 91.539 24.5 97.739 24.5C103.839 24.5 110.039 27.4 115.739 33.2C122.439 39.4 128.739 45.9 135.539 52.8C138.939 56.3 142.439 59.8 145.939 63.4L175.739 93.2C181.939 99.4 185.139 105.7 185.139 111.9C185.139 118.1 181.939 124.4 175.739 130.6C172.639 133.7 169.539 136.9 166.439 140C157.139 149.4 148.439 158.3 138.839 166.8C138.639 167 138.539 167.1 138.339 167.3C130.039 175.6 131.339 183.5 133.339 189.5C133.439 189.8 133.539 190 133.639 190.3C141.339 208.8 152.039 226.4 168.739 247.4C198.739 284.4 230.339 313.1 265.139 335.2C269.439 338 274.039 340.2 278.339 342.4C282.339 344.4 286.039 346.3 289.339 348.4C289.739 348.6 290.039 348.8 290.439 349C293.739 350.7 296.939 351.5 300.139 351.5C308.139 351.5 313.339 346.4 315.039 344.7L352.439 307.3C358.239 301.5 364.539 298.4 370.739 298.4C378.339 298.4 384.539 303.1 388.439 307.3L448.739 367.5C460.739 379.5 460.639 392.5 448.439 405.2C444.239 409.7 439.839 414 435.139 418.5C428.139 425.3 420.839 432.3 414.239 440.2C402.739 452.6 389.039 458.4 371.339 458.4C369.639 458.4 367.839 458.3 366.139 458.2C333.339 456.1 302.839 443.3 279.939 432.4C217.739 402.3 163.139 359.6 117.839 305.4C80.539 260.5 55.439 218.7 38.839 173.9C28.539 146.4 24.639 124.3 26.239 104.2Z" fill="url(#paint0_linear_6_24)"/>
</g>
<defs>
<linearGradient id="paint0_linear_6_24" x1="-145.5" y1="-36.5" x2="418" y2="673" gradientUnits="userSpaceOnUse">
<stop stop-color="#FE226A"/>
<stop offset="1" stop-color="#7750E7"/>
</linearGradient>
<clipPath id="clip0_6_24">
<rect width="482.6" height="482.6" fill="white" transform="translate(0.5)"/>
</clipPath>
</defs>
</svg>
