<svg height="512" viewBox="0 0 64 64" width="512" xmlns="http://www.w3.org/2000/svg"><g id="Layer_4_copy_2"><g><g opacity=".4"><path d="m31.99 64.01c-17.64 0-32-14.36-32-32 0-17.65 14.36-32 32-32s32 14.36 32 32-14.36 32-32 32z" fill="#db2b42"/></g><path d="m31.99 64.01c-17.64 0-32-14.36-32-32 0-17.65 14.36-32 32-32s32 14.36 32 32-14.36 32-32 32z" fill="#db2b42"/></g></g><g id="outline_copy"><g id="Lozenge_3_"><g><g><path d="m49.49 24.86s-.35-2.46-1.42-3.54c-1.36-1.42-2.88-1.43-3.58-1.51-4.99-.36-12.49-.36-12.49-.36h-.02s-7.49 0-12.49.36c-.7.08-2.22.09-3.58 1.51-1.07 1.08-1.42 3.54-1.42 3.54s-.36 2.89-.36 5.78v2.71c0 2.89.36 5.78.36 5.78s.35 2.46 1.42 3.54c1.36 1.42 3.14 1.38 3.94 1.53 2.87.27 12.15.35 12.15.35s7.5-.01 12.49-.37c.7-.08 2.22-.09 3.58-1.51 1.07-1.08 1.42-3.54 1.42-3.54s.36-2.89.36-5.78v-2.71c0-2.89-.36-5.78-.36-5.78zm-21.17 11.77v-10.03l9.64 5.03z" fill="#fff"/></g></g></g></g></svg>