<svg width="512" height="512" viewBox="0 0 512 512" fill="none" xmlns="http://www.w3.org/2000/svg">
<path d="M68.2385 274.466C61.8987 281.74 57.2722 290.345 54.6999 299.646C53.7934 307.2 56.2443 317.163 70.8573 325.481C66.6248 330.521 63.7373 336.55 62.4638 343.006C61.3288 350.836 63.7585 358.763 69.0863 364.611C69.7872 365.39 70.5417 366.119 71.3441 366.793C70.3212 374.552 73.3854 382.287 79.4438 387.24C82.5201 389.476 85.8399 391.357 89.3396 392.847C92.2028 393.923 94.8454 395.513 97.1371 397.539C100.226 401.072 100.083 406.696 99.4789 415.526C98.0174 424.592 99.2308 433.888 102.971 442.276C109.101 452.35 120.129 458.4 131.92 458.156C141.568 457.884 151.08 455.806 159.962 452.029C180.576 444.542 197.59 437.533 212.732 430.273C215.25 439.607 216.66 457.711 209.492 491.335C208.845 493.255 208.72 495.311 209.131 497.295C210.066 501.029 213.423 503.648 217.272 503.649H418.497C421.873 503.641 424.916 501.612 426.221 498.498C427.525 495.383 426.836 491.791 424.473 489.38C411.244 474.873 399.392 459.168 389.069 442.469C371.941 415.339 367.686 382.023 377.445 351.459C386.041 329.992 398.032 310.047 412.957 292.386C419.286 283.992 425.833 275.347 431.675 266.517C456.67 228.872 463.57 189.818 451.71 153.566C439.091 117.828 415.356 87.0707 383.983 65.8046C370.337 56.6935 355.519 49.4738 339.934 44.3426V41.9672C339.906 18.8009 321.133 0.0277497 297.967 0H264.393C243.174 0.0680181 225.358 15.9945 222.921 37.0738C137.384 49.2191 89.5914 90.9094 84.7736 158.141C84.3262 170.429 85.2099 182.73 87.4091 194.829C89.9408 207.501 90.5801 220.478 89.3061 233.338C87.2161 247.741 76.6907 262.58 68.2385 274.466ZM239.213 41.9672C239.213 28.0605 250.487 16.7869 264.393 16.7869H297.967C311.874 16.7869 323.147 28.0605 323.147 41.9672V58.7541C323.147 63.3897 319.389 67.1475 314.754 67.1475H247.606C242.971 67.1475 239.213 63.3897 239.213 58.7541V41.9672ZM281.18 159.475C327.536 159.475 365.115 197.054 365.115 243.41C365.115 289.766 327.536 327.344 281.18 327.344C234.824 327.344 197.246 289.766 197.246 243.41C197.297 197.075 234.846 159.526 281.18 159.475ZM281.18 142.689C272.68 142.721 264.219 143.835 256 146.004V83.9344H306.36V146.046C298.144 143.862 289.682 142.734 281.18 142.689ZM104.079 192.403C102.063 181.495 101.219 170.403 101.56 159.316C106.655 87.6863 168.045 62.3381 222.426 54.037V58.7541C222.47 69.3868 229.188 78.8459 239.213 82.39V151.963C196.168 171.693 172.678 218.741 182.775 265.002C192.872 311.264 233.83 344.246 281.18 344.246C328.531 344.246 369.488 311.264 379.585 265.002C389.682 218.741 366.192 171.693 323.147 151.963V82.39C332.051 79.2168 338.416 71.3105 339.615 61.9352C351.924 66.437 363.649 72.3968 374.54 79.6873C402.893 98.839 424.366 126.569 435.813 158.812C446.187 190.439 440.11 223.551 417.733 257.242C412.177 265.636 406.075 273.719 399.612 282.263C383.528 301.307 370.67 322.856 361.547 346.053C350.216 381.312 355.055 419.777 374.767 451.131C382.484 463.51 390.92 475.427 400.031 486.82H227.546C232.884 458.525 232.935 437.03 227.848 422.45C247.49 412.345 265.724 399.711 282.087 384.873L284.101 383.077C287.123 380.391 290.656 377.201 294.081 373.844C297.264 370.553 297.222 365.318 293.987 362.078C290.752 358.838 285.517 358.789 282.221 361.967C279.04 365.14 275.75 368.052 272.988 370.545L270.789 372.501C253.567 388.105 234.2 401.163 213.277 411.279C194.139 420.789 174.436 429.12 154.28 436.224C147.337 439.28 139.884 441.013 132.306 441.336C126.556 441.624 121.062 438.932 117.768 434.21C115.753 428.58 115.244 422.521 116.291 416.634C118.416 406.094 116.056 395.146 109.778 386.417C106.014 382.582 101.484 379.585 96.4824 377.621C94.1403 376.645 91.9067 375.427 89.8181 373.987C88.8147 372.993 88.1709 371.694 87.9883 370.293C91.6933 368.554 93.6036 364.396 92.5097 360.452C91.4157 356.508 87.6365 353.928 83.5649 354.346C82.7039 354.281 81.9107 353.854 81.3826 353.171C79.5863 351.145 78.7431 348.448 79.0661 345.759C81.21 339.006 85.2795 333.026 90.7749 328.553C92.7901 326.518 93.6291 323.597 93.0003 320.803C92.3716 318.009 90.3619 315.729 87.6693 314.754C83.6573 313.277 70.6055 307.964 71.3693 301.635C74.0567 295.359 77.6109 289.491 81.9282 284.202C91.4296 270.814 103.248 254.145 105.917 235.763C107.474 221.299 106.854 206.683 104.079 192.403Z" fill="url(#paint0_linear_1_686)"/>
<path d="M281.18 302.164C313.629 302.164 339.934 275.859 339.934 243.41C339.934 210.961 313.629 184.656 281.18 184.656C248.731 184.656 222.426 210.961 222.426 243.41C222.463 275.844 248.747 302.127 281.18 302.164ZM281.18 201.443C304.358 201.443 323.148 220.232 323.148 243.41C323.148 266.588 304.358 285.377 281.18 285.377C258.003 285.377 239.213 266.588 239.213 243.41C239.241 220.244 258.014 201.47 281.18 201.443Z" fill="url(#paint1_linear_1_686)"/>
<defs>
<linearGradient id="paint0_linear_1_686" x1="-52.5" y1="9.5" x2="466.5" y2="560.5" gradientUnits="userSpaceOnUse">
<stop stop-color="#FE226A"/>
<stop offset="1" stop-color="#7750E7"/>
</linearGradient>
<linearGradient id="paint1_linear_1_686" x1="191.203" y1="186.872" x2="307.802" y2="341.645" gradientUnits="userSpaceOnUse">
<stop stop-color="#FE226A"/>
<stop offset="1" stop-color="#7750E7"/>
</linearGradient>
</defs>
</svg>
