<svg width="512" height="512" viewBox="0 0 512 512" fill="none" xmlns="http://www.w3.org/2000/svg">
<g clip-path="url(#clip0_1_691)">
<path d="M469.333 0H42.6667C19.1142 0.0282122 0.0282122 19.1142 0 42.6667V469.333C0.0282122 492.886 19.1142 511.972 42.6667 512H469.333C492.886 511.972 511.972 492.886 512 469.333V42.6667C511.972 19.1142 492.886 0.0282122 469.333 0ZM494.933 469.333C494.933 483.472 483.472 494.933 469.333 494.933H42.6667C28.5282 494.933 17.0667 483.472 17.0667 469.333V42.6667C17.0667 28.5282 28.5282 17.0667 42.6667 17.0667H469.333C483.472 17.0667 494.933 28.5282 494.933 42.6667V469.333Z" fill="url(#paint0_linear_1_691)"/>
<path d="M204.8 426.667C299.057 426.667 375.467 350.257 375.467 256C375.467 161.743 299.057 85.3333 204.8 85.3333C110.543 85.3333 34.1333 161.743 34.1333 256C34.2415 350.212 110.588 426.558 204.8 426.667ZM204.8 102.4C289.631 102.4 358.4 171.169 358.4 256C358.4 340.831 289.631 409.6 204.8 409.6C119.969 409.6 51.2 340.831 51.2 256C51.2987 171.21 120.01 102.499 204.8 102.4Z" fill="url(#paint1_linear_1_691)"/>
<path d="M204.8 392.533C280.205 392.533 341.333 331.405 341.333 256C341.333 180.595 280.205 119.467 204.8 119.467C129.395 119.467 68.2666 180.595 68.2666 256C68.3559 331.368 129.432 392.444 204.8 392.533ZM204.8 136.533C270.78 136.533 324.267 190.02 324.267 256C324.267 321.98 270.78 375.467 204.8 375.467C138.82 375.467 85.3333 321.98 85.3333 256C85.4038 190.05 138.85 136.604 204.8 136.533Z" fill="url(#paint2_linear_1_691)"/>
<path d="M173.116 176.768C177.492 175.012 179.616 170.042 177.86 165.666C176.105 161.29 171.134 159.166 166.758 160.922C137.008 172.94 114.548 198.124 106.001 229.052C104.762 233.6 107.443 238.291 111.991 239.531C116.539 240.77 121.231 238.088 122.47 233.54C129.592 207.763 148.315 186.774 173.116 176.768Z" fill="url(#paint3_linear_1_691)"/>
<path d="M204.8 281.6C218.938 281.6 230.4 270.138 230.4 256C230.4 241.861 218.938 230.4 204.8 230.4C190.661 230.4 179.2 241.861 179.2 256C179.2 270.138 190.661 281.6 204.8 281.6ZM204.8 247.467C209.513 247.467 213.333 251.287 213.333 256C213.333 260.713 209.513 264.533 204.8 264.533C200.087 264.533 196.267 260.713 196.267 256C196.267 251.287 200.087 247.467 204.8 247.467Z" fill="url(#paint4_linear_1_691)"/>
<path d="M358.4 85.3333C372.539 85.3333 384 73.8718 384 59.7333C384 45.5948 372.539 34.1333 358.4 34.1333C344.262 34.1333 332.8 45.5948 332.8 59.7333C332.8 73.8718 344.262 85.3333 358.4 85.3333ZM358.4 51.2C363.113 51.2 366.933 55.0205 366.933 59.7333C366.933 64.4461 363.113 68.2666 358.4 68.2666C353.687 68.2666 349.867 64.4461 349.867 59.7333C349.867 55.0205 353.687 51.2 358.4 51.2Z" fill="url(#paint5_linear_1_691)"/>
<path d="M426.667 85.3333C440.805 85.3333 452.267 73.8718 452.267 59.7333C452.267 45.5948 440.805 34.1333 426.667 34.1333C412.528 34.1333 401.067 45.5948 401.067 59.7333C401.067 73.8718 412.528 85.3333 426.667 85.3333ZM426.667 51.2C431.379 51.2 435.2 55.0205 435.2 59.7333C435.2 64.4461 431.379 68.2666 426.667 68.2666C421.954 68.2666 418.133 64.4461 418.133 59.7333C418.133 55.0205 421.954 51.2 426.667 51.2Z" fill="url(#paint6_linear_1_691)"/>
<path d="M469.333 443.733H143.497C139.893 433.542 130.277 426.712 119.467 426.667H85.3333C74.5234 426.712 64.9067 433.542 61.3034 443.733H42.6666C37.9538 443.733 34.1333 447.554 34.1333 452.267C34.1333 456.98 37.9538 460.8 42.6666 460.8H61.3034C64.9067 470.992 74.5234 477.822 85.3333 477.867H119.467C130.277 477.822 139.893 470.992 143.497 460.8H469.333C474.046 460.8 477.867 456.98 477.867 452.267C477.867 447.554 474.046 443.733 469.333 443.733ZM119.467 460.8H85.3333C80.6205 460.8 76.8 456.98 76.8 452.267C76.8 447.554 80.6205 443.733 85.3333 443.733H119.467C124.179 443.733 128 447.554 128 452.267C128 456.98 124.179 460.8 119.467 460.8Z" fill="url(#paint7_linear_1_691)"/>
<path d="M51.2001 59.7334C55.9129 59.7334 59.7334 55.9129 59.7334 51.2001C59.7334 46.4873 55.9129 42.6667 51.2001 42.6667C46.4873 42.6667 42.6667 46.4873 42.6667 51.2001C42.6667 55.9129 46.4873 59.7334 51.2001 59.7334Z" fill="url(#paint8_linear_1_691)"/>
<path d="M93.8666 59.7334C98.5794 59.7334 102.4 55.9129 102.4 51.2001C102.4 46.4873 98.5794 42.6667 93.8666 42.6667C89.1538 42.6667 85.3333 46.4873 85.3333 51.2001C85.3333 55.9129 89.1538 59.7334 93.8666 59.7334Z" fill="url(#paint9_linear_1_691)"/>
<path d="M136.533 59.7334C141.246 59.7334 145.067 55.9129 145.067 51.2001C145.067 46.4873 141.246 42.6667 136.533 42.6667C131.821 42.6667 128 46.4873 128 51.2001C128 55.9129 131.821 59.7334 136.533 59.7334Z" fill="url(#paint10_linear_1_691)"/>
<path d="M179.2 59.7334C183.913 59.7334 187.733 55.9129 187.733 51.2001C187.733 46.4873 183.913 42.6667 179.2 42.6667C174.487 42.6667 170.667 46.4873 170.667 51.2001C170.667 55.9129 174.487 59.7334 179.2 59.7334Z" fill="url(#paint11_linear_1_691)"/>
<path d="M386.5 403.567C384.282 405.709 383.392 408.882 384.173 411.866C384.954 414.849 387.284 417.179 390.268 417.96C393.251 418.741 396.424 417.851 398.567 415.633L441.233 372.966C442.834 371.366 443.733 369.196 443.733 366.933V230.4C457.872 230.4 469.333 218.938 469.333 204.8V128C469.333 113.861 457.872 102.4 443.733 102.4H426.667C412.528 102.4 401.067 113.861 401.067 128V204.8C401.067 218.938 412.528 230.4 426.667 230.4V363.4L386.5 403.567ZM418.133 204.8V128C418.133 123.287 421.954 119.467 426.667 119.467H443.733C448.446 119.467 452.267 123.287 452.267 128V204.8C452.267 209.513 448.446 213.333 443.733 213.333H426.667C421.954 213.333 418.133 209.513 418.133 204.8Z" fill="url(#paint12_linear_1_691)"/>
</g>
<defs>
<linearGradient id="paint0_linear_1_691" x1="-204.5" y1="-48.5" x2="536.5" y2="566" gradientUnits="userSpaceOnUse">
<stop stop-color="#FE226A"/>
<stop offset="1" stop-color="#7750E7"/>
</linearGradient>
<linearGradient id="paint1_linear_1_691" x1="-102.2" y1="52.9999" x2="391.8" y2="462.667" gradientUnits="userSpaceOnUse">
<stop stop-color="#FE226A"/>
<stop offset="1" stop-color="#7750E7"/>
</linearGradient>
<linearGradient id="paint2_linear_1_691" x1="-40.8001" y1="93.5999" x2="354.4" y2="421.333" gradientUnits="userSpaceOnUse">
<stop stop-color="#FE226A"/>
<stop offset="1" stop-color="#7750E7"/>
</linearGradient>
<linearGradient id="paint3_linear_1_691" x1="76.63" y1="152.772" x2="189.43" y2="238.376" gradientUnits="userSpaceOnUse">
<stop stop-color="#FE226A"/>
<stop offset="1" stop-color="#7750E7"/>
</linearGradient>
<linearGradient id="paint4_linear_1_691" x1="158.75" y1="225.55" x2="232.85" y2="287" gradientUnits="userSpaceOnUse">
<stop stop-color="#FE226A"/>
<stop offset="1" stop-color="#7750E7"/>
</linearGradient>
<linearGradient id="paint5_linear_1_691" x1="312.35" y1="29.2833" x2="386.45" y2="90.7333" gradientUnits="userSpaceOnUse">
<stop stop-color="#FE226A"/>
<stop offset="1" stop-color="#7750E7"/>
</linearGradient>
<linearGradient id="paint6_linear_1_691" x1="380.617" y1="29.2833" x2="454.717" y2="90.7333" gradientUnits="userSpaceOnUse">
<stop stop-color="#FE226A"/>
<stop offset="1" stop-color="#7750E7"/>
</linearGradient>
<linearGradient id="paint7_linear_1_691" x1="-143.1" y1="421.817" x2="-122.516" y2="569.757" gradientUnits="userSpaceOnUse">
<stop stop-color="#FE226A"/>
<stop offset="1" stop-color="#7750E7"/>
</linearGradient>
<linearGradient id="paint8_linear_1_691" x1="35.8501" y1="41.0501" x2="60.5501" y2="61.5334" gradientUnits="userSpaceOnUse">
<stop stop-color="#FE226A"/>
<stop offset="1" stop-color="#7750E7"/>
</linearGradient>
<linearGradient id="paint9_linear_1_691" x1="78.5166" y1="41.0501" x2="103.217" y2="61.5334" gradientUnits="userSpaceOnUse">
<stop stop-color="#FE226A"/>
<stop offset="1" stop-color="#7750E7"/>
</linearGradient>
<linearGradient id="paint10_linear_1_691" x1="121.183" y1="41.0501" x2="145.883" y2="61.5334" gradientUnits="userSpaceOnUse">
<stop stop-color="#FE226A"/>
<stop offset="1" stop-color="#7750E7"/>
</linearGradient>
<linearGradient id="paint11_linear_1_691" x1="163.85" y1="41.0501" x2="188.55" y2="61.5334" gradientUnits="userSpaceOnUse">
<stop stop-color="#FE226A"/>
<stop offset="1" stop-color="#7750E7"/>
</linearGradient>
<linearGradient id="paint12_linear_1_691" x1="349.77" y1="72.4816" x2="548.46" y2="117.054" gradientUnits="userSpaceOnUse">
<stop stop-color="#FE226A"/>
<stop offset="1" stop-color="#7750E7"/>
</linearGradient>
<clipPath id="clip0_1_691">
<rect width="512" height="512" fill="white"/>
</clipPath>
</defs>
</svg>
