<svg width="512" height="512" viewBox="0 0 512 512" fill="none" xmlns="http://www.w3.org/2000/svg">
<g clip-path="url(#clip0_1_1013)">
<path d="M452.267 136.533H110.933V117.521L452.617 28.032C453.819 32.1015 457.829 34.669 462.029 34.0581C466.228 33.4472 469.34 29.8435 469.333 25.6V8.53333C469.333 3.8205 465.513 0 460.8 0C456.087 0 452.267 3.8205 452.267 8.53333V10.4875L108.646 100.471C103.676 89.514 91.7448 83.4969 79.9787 86.0136C68.2125 88.5302 59.7869 98.9012 59.7333 110.933V136.533C26.7611 136.576 0.0423113 163.294 0 196.267V418.133C0.0423113 451.106 26.7611 477.824 59.7333 477.867V494.933C59.7333 504.359 67.3743 512 76.8 512H145.067C154.492 512 162.133 504.359 162.133 494.933V477.867H349.867V494.933C349.867 504.359 357.508 512 366.933 512H435.2C444.626 512 452.267 504.359 452.267 494.933V477.867C485.239 477.824 511.958 451.106 512 418.133V196.267C511.958 163.294 485.239 136.576 452.267 136.533ZM76.8 110.933C76.8 106.221 80.6205 102.4 85.3333 102.4C90.0462 102.4 93.8667 106.221 93.8667 110.933V136.533H76.8V110.933ZM145.067 494.933H76.8V477.867H145.067V494.933ZM435.2 494.933H366.933V477.867H435.2V494.933ZM494.933 418.133C494.905 441.686 475.819 460.772 452.267 460.8H59.7333C36.1809 460.772 17.0949 441.686 17.0667 418.133V196.267C17.0949 172.714 36.1809 153.628 59.7333 153.6H452.267C475.819 153.628 494.905 172.714 494.933 196.267V418.133Z" fill="url(#paint0_linear_1_1013)"/>
<path d="M51.2001 366.933C55.9129 366.933 59.7334 363.113 59.7334 358.4C59.7334 353.687 55.9129 349.867 51.2001 349.867C46.4873 349.867 42.6667 353.687 42.6667 358.4C42.6667 363.113 46.4873 366.933 51.2001 366.933Z" fill="url(#paint1_linear_1_1013)"/>
<path d="M51.2001 401.067C55.9129 401.067 59.7334 397.246 59.7334 392.533C59.7334 387.821 55.9129 384 51.2001 384C46.4873 384 42.6667 387.821 42.6667 392.533C42.6667 397.246 46.4873 401.067 51.2001 401.067Z" fill="url(#paint2_linear_1_1013)"/>
<path d="M51.2001 435.2C55.9129 435.2 59.7334 431.379 59.7334 426.667C59.7334 421.954 55.9129 418.133 51.2001 418.133C46.4873 418.133 42.6667 421.954 42.6667 426.667C42.6667 431.379 46.4873 435.2 51.2001 435.2Z" fill="url(#paint3_linear_1_1013)"/>
<path d="M85.3334 366.933C90.0462 366.933 93.8667 363.113 93.8667 358.4C93.8667 353.687 90.0462 349.867 85.3334 349.867C80.6206 349.867 76.8 353.687 76.8 358.4C76.8 363.113 80.6206 366.933 85.3334 366.933Z" fill="url(#paint4_linear_1_1013)"/>
<path d="M85.3334 401.067C90.0462 401.067 93.8667 397.246 93.8667 392.533C93.8667 387.821 90.0462 384 85.3334 384C80.6206 384 76.8 387.821 76.8 392.533C76.8 397.246 80.6206 401.067 85.3334 401.067Z" fill="url(#paint5_linear_1_1013)"/>
<path d="M85.3334 435.2C90.0462 435.2 93.8667 431.379 93.8667 426.667C93.8667 421.954 90.0462 418.133 85.3334 418.133C80.6206 418.133 76.8 421.954 76.8 426.667C76.8 431.379 80.6206 435.2 85.3334 435.2Z" fill="url(#paint6_linear_1_1013)"/>
<path d="M119.467 366.933C124.18 366.933 128 363.113 128 358.4C128 353.687 124.18 349.867 119.467 349.867C114.754 349.867 110.933 353.687 110.933 358.4C110.933 363.113 114.754 366.933 119.467 366.933Z" fill="url(#paint7_linear_1_1013)"/>
<path d="M119.467 401.067C124.18 401.067 128 397.246 128 392.533C128 387.821 124.18 384 119.467 384C114.754 384 110.933 387.821 110.933 392.533C110.933 397.246 114.754 401.067 119.467 401.067Z" fill="url(#paint8_linear_1_1013)"/>
<path d="M119.467 435.2C124.18 435.2 128 431.379 128 426.667C128 421.954 124.18 418.133 119.467 418.133C114.754 418.133 110.933 421.954 110.933 426.667C110.933 431.379 114.754 435.2 119.467 435.2Z" fill="url(#paint9_linear_1_1013)"/>
<path d="M392.533 366.933C397.246 366.933 401.067 363.113 401.067 358.4C401.067 353.687 397.246 349.867 392.533 349.867C387.821 349.867 384 353.687 384 358.4C384 363.113 387.821 366.933 392.533 366.933Z" fill="url(#paint10_linear_1_1013)"/>
<path d="M392.533 401.067C397.246 401.067 401.067 397.246 401.067 392.533C401.067 387.821 397.246 384 392.533 384C387.821 384 384 387.821 384 392.533C384 397.246 387.821 401.067 392.533 401.067Z" fill="url(#paint11_linear_1_1013)"/>
<path d="M392.533 435.2C397.246 435.2 401.067 431.379 401.067 426.667C401.067 421.954 397.246 418.133 392.533 418.133C387.821 418.133 384 421.954 384 426.667C384 431.379 387.821 435.2 392.533 435.2Z" fill="url(#paint12_linear_1_1013)"/>
<path d="M426.667 366.933C431.379 366.933 435.2 363.113 435.2 358.4C435.2 353.687 431.379 349.867 426.667 349.867C421.954 349.867 418.133 353.687 418.133 358.4C418.133 363.113 421.954 366.933 426.667 366.933Z" fill="url(#paint13_linear_1_1013)"/>
<path d="M426.667 401.067C431.379 401.067 435.2 397.246 435.2 392.533C435.2 387.821 431.379 384 426.667 384C421.954 384 418.133 387.821 418.133 392.533C418.133 397.246 421.954 401.067 426.667 401.067Z" fill="url(#paint14_linear_1_1013)"/>
<path d="M426.667 435.2C431.379 435.2 435.2 431.379 435.2 426.667C435.2 421.954 431.379 418.133 426.667 418.133C421.954 418.133 418.133 421.954 418.133 426.667C418.133 431.379 421.954 435.2 426.667 435.2Z" fill="url(#paint15_linear_1_1013)"/>
<path d="M460.8 366.933C465.513 366.933 469.333 363.113 469.333 358.4C469.333 353.687 465.513 349.867 460.8 349.867C456.087 349.867 452.267 353.687 452.267 358.4C452.267 363.113 456.087 366.933 460.8 366.933Z" fill="url(#paint16_linear_1_1013)"/>
<path d="M460.8 401.067C465.513 401.067 469.333 397.246 469.333 392.533C469.333 387.821 465.513 384 460.8 384C456.087 384 452.267 387.821 452.267 392.533C452.267 397.246 456.087 401.067 460.8 401.067Z" fill="url(#paint17_linear_1_1013)"/>
<path d="M460.8 435.2C465.513 435.2 469.333 431.379 469.333 426.667C469.333 421.954 465.513 418.133 460.8 418.133C456.087 418.133 452.267 421.954 452.267 426.667C452.267 431.379 456.087 435.2 460.8 435.2Z" fill="url(#paint18_linear_1_1013)"/>
<path d="M256 341.333C227.723 341.333 204.8 364.256 204.8 392.533C204.8 420.81 227.723 443.733 256 443.733C284.277 443.733 307.2 420.81 307.2 392.533C307.172 364.268 284.265 341.362 256 341.333ZM256 426.667C238.833 426.688 224.332 413.932 222.165 396.902C219.998 379.872 230.841 363.891 247.467 359.612V375.467C247.467 380.18 251.287 384 256 384C260.713 384 264.533 380.18 264.533 375.467V359.612C281.159 363.891 292.002 379.872 289.835 396.902C287.668 413.932 273.167 426.688 256 426.667Z" fill="url(#paint19_linear_1_1013)"/>
<path d="M443.733 187.733H416.563C412.96 177.542 403.343 170.712 392.533 170.667H119.467C108.657 170.712 99.0401 177.542 95.4368 187.733H68.2667C58.1494 187.689 48.9634 193.632 44.8578 202.879C40.7522 212.126 42.5043 222.925 49.3227 230.4C40.4476 240.047 40.4476 254.886 49.3227 264.533C42.5043 272.008 40.7522 282.808 44.8578 292.055C48.9634 301.302 58.1494 307.245 68.2667 307.2H95.4368C99.0401 317.392 108.657 324.222 119.467 324.267H392.533C403.343 324.222 412.96 317.392 416.563 307.2H443.733C453.851 307.245 463.037 301.302 467.142 292.055C471.248 282.808 469.496 272.008 462.677 264.533C471.552 254.886 471.552 240.047 462.677 230.4C469.496 222.925 471.248 212.126 467.142 202.879C463.037 193.632 453.851 187.689 443.733 187.733ZM452.267 213.333C452.267 218.046 448.446 221.867 443.733 221.867H418.133V204.8H443.733C448.446 204.8 452.267 208.621 452.267 213.333ZM452.267 247.467C452.267 252.18 448.446 256 443.733 256H418.133V238.933H443.733C448.446 238.933 452.267 242.754 452.267 247.467ZM59.7333 247.467C59.7333 242.754 63.5538 238.933 68.2667 238.933H93.8667V256H68.2667C63.5538 256 59.7333 252.18 59.7333 247.467ZM68.2667 204.8H93.8667V221.867H68.2667C63.5538 221.867 59.7333 218.046 59.7333 213.333C59.7333 208.621 63.5538 204.8 68.2667 204.8ZM59.7333 281.6C59.7333 276.887 63.5538 273.067 68.2667 273.067H93.8667V290.133H68.2667C63.5538 290.133 59.7333 286.313 59.7333 281.6ZM392.533 307.2H119.467C114.754 307.2 110.933 303.38 110.933 298.667V196.267C110.933 191.554 114.754 187.733 119.467 187.733H392.533C397.246 187.733 401.067 191.554 401.067 196.267V298.667C401.067 303.38 397.246 307.2 392.533 307.2ZM443.733 290.133H418.133V273.067H443.733C448.446 273.067 452.267 276.887 452.267 281.6C452.267 286.313 448.446 290.133 443.733 290.133Z" fill="url(#paint20_linear_1_1013)"/>
<path d="M153.6 213.333H170.667C175.379 213.333 179.2 209.513 179.2 204.8C179.2 200.087 175.379 196.267 170.667 196.267H153.6C148.887 196.267 145.067 200.087 145.067 204.8C145.067 209.513 148.887 213.333 153.6 213.333Z" fill="url(#paint21_linear_1_1013)"/>
<path d="M170.667 281.6H153.6C148.887 281.6 145.067 285.42 145.067 290.133C145.067 294.846 148.887 298.667 153.6 298.667H170.667C175.379 298.667 179.2 294.846 179.2 290.133C179.2 285.42 175.379 281.6 170.667 281.6Z" fill="url(#paint22_linear_1_1013)"/>
<path d="M136.533 238.933C141.246 238.933 145.067 235.113 145.067 230.4V221.867C145.067 217.154 141.246 213.333 136.533 213.333C131.821 213.333 128 217.154 128 221.867V230.4C128 235.113 131.821 238.933 136.533 238.933Z" fill="url(#paint23_linear_1_1013)"/>
<path d="M145.067 264.533C145.067 259.821 141.246 256 136.533 256C131.821 256 128 259.821 128 264.533V273.067C128 277.779 131.821 281.6 136.533 281.6C141.246 281.6 145.067 277.779 145.067 273.067V264.533Z" fill="url(#paint24_linear_1_1013)"/>
<path d="M187.733 213.333C183.02 213.333 179.2 217.154 179.2 221.867V230.4C179.2 235.113 183.02 238.933 187.733 238.933C192.446 238.933 196.267 235.113 196.267 230.4V221.867C196.267 217.154 192.446 213.333 187.733 213.333Z" fill="url(#paint25_linear_1_1013)"/>
<path d="M187.733 256C183.02 256 179.2 259.821 179.2 264.533V273.067C179.2 277.779 183.02 281.6 187.733 281.6C192.446 281.6 196.267 277.779 196.267 273.067V264.533C196.267 259.821 192.446 256 187.733 256Z" fill="url(#paint26_linear_1_1013)"/>
<path d="M256 213.333H273.067C277.779 213.333 281.6 209.513 281.6 204.8C281.6 200.087 277.779 196.267 273.067 196.267H256C251.287 196.267 247.467 200.087 247.467 204.8C247.467 209.513 251.287 213.333 256 213.333Z" fill="url(#paint27_linear_1_1013)"/>
<path d="M273.067 281.6H256C251.287 281.6 247.467 285.42 247.467 290.133C247.467 294.846 251.287 298.667 256 298.667H273.067C277.779 298.667 281.6 294.846 281.6 290.133C281.6 285.42 277.779 281.6 273.067 281.6Z" fill="url(#paint28_linear_1_1013)"/>
<path d="M238.933 238.933C243.646 238.933 247.467 235.113 247.467 230.4V221.867C247.467 217.154 243.646 213.333 238.933 213.333C234.22 213.333 230.4 217.154 230.4 221.867V230.4C230.4 235.113 234.22 238.933 238.933 238.933Z" fill="url(#paint29_linear_1_1013)"/>
<path d="M247.467 264.533C247.467 259.821 243.646 256 238.933 256C234.22 256 230.4 259.821 230.4 264.533V273.067C230.4 277.779 234.22 281.6 238.933 281.6C243.646 281.6 247.467 277.779 247.467 273.067V264.533Z" fill="url(#paint30_linear_1_1013)"/>
<path d="M290.133 213.333C285.421 213.333 281.6 217.154 281.6 221.867V230.4C281.6 235.113 285.421 238.933 290.133 238.933C294.846 238.933 298.667 235.113 298.667 230.4V221.867C298.667 217.154 294.846 213.333 290.133 213.333Z" fill="url(#paint31_linear_1_1013)"/>
<path d="M290.133 256C285.421 256 281.6 259.821 281.6 264.533V273.067C281.6 277.779 285.421 281.6 290.133 281.6C294.846 281.6 298.667 277.779 298.667 273.067V264.533C298.667 259.821 294.846 256 290.133 256Z" fill="url(#paint32_linear_1_1013)"/>
<path d="M341.333 213.333H358.4C363.113 213.333 366.933 209.513 366.933 204.8C366.933 200.087 363.113 196.267 358.4 196.267H341.333C336.621 196.267 332.8 200.087 332.8 204.8C332.8 209.513 336.621 213.333 341.333 213.333Z" fill="url(#paint33_linear_1_1013)"/>
<path d="M358.4 281.6H341.333C336.621 281.6 332.8 285.42 332.8 290.133C332.8 294.846 336.621 298.667 341.333 298.667H358.4C363.113 298.667 366.933 294.846 366.933 290.133C366.933 285.42 363.113 281.6 358.4 281.6Z" fill="url(#paint34_linear_1_1013)"/>
<path d="M324.267 238.933C328.98 238.933 332.8 235.113 332.8 230.4V221.867C332.8 217.154 328.98 213.333 324.267 213.333C319.554 213.333 315.733 217.154 315.733 221.867V230.4C315.733 235.113 319.554 238.933 324.267 238.933Z" fill="url(#paint35_linear_1_1013)"/>
<path d="M332.8 264.533C332.8 259.821 328.98 256 324.267 256C319.554 256 315.733 259.821 315.733 264.533V273.067C315.733 277.779 319.554 281.6 324.267 281.6C328.98 281.6 332.8 277.779 332.8 273.067V264.533Z" fill="url(#paint36_linear_1_1013)"/>
<path d="M375.467 213.333C370.754 213.333 366.933 217.154 366.933 221.867V230.4C366.933 235.113 370.754 238.933 375.467 238.933C380.18 238.933 384 235.113 384 230.4V221.867C384 217.154 380.18 213.333 375.467 213.333Z" fill="url(#paint37_linear_1_1013)"/>
<path d="M375.467 256C370.754 256 366.933 259.821 366.933 264.533V273.067C366.933 277.779 370.754 281.6 375.467 281.6C380.18 281.6 384 277.779 384 273.067V264.533C384 259.821 380.18 256 375.467 256Z" fill="url(#paint38_linear_1_1013)"/>
<path d="M213.333 298.667C218.046 298.667 221.867 294.846 221.867 290.133C221.867 285.42 218.046 281.6 213.333 281.6C208.621 281.6 204.8 285.42 204.8 290.133C204.8 294.846 208.621 298.667 213.333 298.667Z" fill="url(#paint39_linear_1_1013)"/>
</g>
<defs>
<linearGradient id="paint0_linear_1_1013" x1="-153.5" y1="-57" x2="435.5" y2="633" gradientUnits="userSpaceOnUse">
<stop stop-color="#FE226A"/>
<stop offset="1" stop-color="#7750E7"/>
</linearGradient>
<linearGradient id="paint1_linear_1_1013" x1="37.5501" y1="347.967" x2="57.1834" y2="370.967" gradientUnits="userSpaceOnUse">
<stop stop-color="#FE226A"/>
<stop offset="1" stop-color="#7750E7"/>
</linearGradient>
<linearGradient id="paint2_linear_1_1013" x1="37.5501" y1="382.1" x2="57.1834" y2="405.1" gradientUnits="userSpaceOnUse">
<stop stop-color="#FE226A"/>
<stop offset="1" stop-color="#7750E7"/>
</linearGradient>
<linearGradient id="paint3_linear_1_1013" x1="37.5501" y1="416.233" x2="57.1834" y2="439.233" gradientUnits="userSpaceOnUse">
<stop stop-color="#FE226A"/>
<stop offset="1" stop-color="#7750E7"/>
</linearGradient>
<linearGradient id="paint4_linear_1_1013" x1="71.6834" y1="347.967" x2="91.3167" y2="370.967" gradientUnits="userSpaceOnUse">
<stop stop-color="#FE226A"/>
<stop offset="1" stop-color="#7750E7"/>
</linearGradient>
<linearGradient id="paint5_linear_1_1013" x1="71.6834" y1="382.1" x2="91.3167" y2="405.1" gradientUnits="userSpaceOnUse">
<stop stop-color="#FE226A"/>
<stop offset="1" stop-color="#7750E7"/>
</linearGradient>
<linearGradient id="paint6_linear_1_1013" x1="71.6834" y1="416.233" x2="91.3167" y2="439.233" gradientUnits="userSpaceOnUse">
<stop stop-color="#FE226A"/>
<stop offset="1" stop-color="#7750E7"/>
</linearGradient>
<linearGradient id="paint7_linear_1_1013" x1="105.817" y1="347.967" x2="125.45" y2="370.967" gradientUnits="userSpaceOnUse">
<stop stop-color="#FE226A"/>
<stop offset="1" stop-color="#7750E7"/>
</linearGradient>
<linearGradient id="paint8_linear_1_1013" x1="105.817" y1="382.1" x2="125.45" y2="405.1" gradientUnits="userSpaceOnUse">
<stop stop-color="#FE226A"/>
<stop offset="1" stop-color="#7750E7"/>
</linearGradient>
<linearGradient id="paint9_linear_1_1013" x1="105.817" y1="416.233" x2="125.45" y2="439.233" gradientUnits="userSpaceOnUse">
<stop stop-color="#FE226A"/>
<stop offset="1" stop-color="#7750E7"/>
</linearGradient>
<linearGradient id="paint10_linear_1_1013" x1="378.883" y1="347.967" x2="398.517" y2="370.967" gradientUnits="userSpaceOnUse">
<stop stop-color="#FE226A"/>
<stop offset="1" stop-color="#7750E7"/>
</linearGradient>
<linearGradient id="paint11_linear_1_1013" x1="378.883" y1="382.1" x2="398.517" y2="405.1" gradientUnits="userSpaceOnUse">
<stop stop-color="#FE226A"/>
<stop offset="1" stop-color="#7750E7"/>
</linearGradient>
<linearGradient id="paint12_linear_1_1013" x1="378.883" y1="416.233" x2="398.517" y2="439.233" gradientUnits="userSpaceOnUse">
<stop stop-color="#FE226A"/>
<stop offset="1" stop-color="#7750E7"/>
</linearGradient>
<linearGradient id="paint13_linear_1_1013" x1="413.017" y1="347.967" x2="432.65" y2="370.967" gradientUnits="userSpaceOnUse">
<stop stop-color="#FE226A"/>
<stop offset="1" stop-color="#7750E7"/>
</linearGradient>
<linearGradient id="paint14_linear_1_1013" x1="413.017" y1="382.1" x2="432.65" y2="405.1" gradientUnits="userSpaceOnUse">
<stop stop-color="#FE226A"/>
<stop offset="1" stop-color="#7750E7"/>
</linearGradient>
<linearGradient id="paint15_linear_1_1013" x1="413.017" y1="416.233" x2="432.65" y2="439.233" gradientUnits="userSpaceOnUse">
<stop stop-color="#FE226A"/>
<stop offset="1" stop-color="#7750E7"/>
</linearGradient>
<linearGradient id="paint16_linear_1_1013" x1="447.15" y1="347.967" x2="466.783" y2="370.967" gradientUnits="userSpaceOnUse">
<stop stop-color="#FE226A"/>
<stop offset="1" stop-color="#7750E7"/>
</linearGradient>
<linearGradient id="paint17_linear_1_1013" x1="447.15" y1="382.1" x2="466.783" y2="405.1" gradientUnits="userSpaceOnUse">
<stop stop-color="#FE226A"/>
<stop offset="1" stop-color="#7750E7"/>
</linearGradient>
<linearGradient id="paint18_linear_1_1013" x1="447.15" y1="416.233" x2="466.783" y2="439.233" gradientUnits="userSpaceOnUse">
<stop stop-color="#FE226A"/>
<stop offset="1" stop-color="#7750E7"/>
</linearGradient>
<linearGradient id="paint19_linear_1_1013" x1="174.1" y1="329.933" x2="291.9" y2="467.933" gradientUnits="userSpaceOnUse">
<stop stop-color="#FE226A"/>
<stop offset="1" stop-color="#7750E7"/>
</linearGradient>
<linearGradient id="paint20_linear_1_1013" x1="-85.2538" y1="153.567" x2="15.2211" y2="480.526" gradientUnits="userSpaceOnUse">
<stop stop-color="#FE226A"/>
<stop offset="1" stop-color="#7750E7"/>
</linearGradient>
<linearGradient id="paint21_linear_1_1013" x1="134.833" y1="194.367" x2="149.188" y2="227.999" gradientUnits="userSpaceOnUse">
<stop stop-color="#FE226A"/>
<stop offset="1" stop-color="#7750E7"/>
</linearGradient>
<linearGradient id="paint22_linear_1_1013" x1="134.833" y1="279.7" x2="149.188" y2="313.333" gradientUnits="userSpaceOnUse">
<stop stop-color="#FE226A"/>
<stop offset="1" stop-color="#7750E7"/>
</linearGradient>
<linearGradient id="paint23_linear_1_1013" x1="122.883" y1="210.483" x2="151.814" y2="233.078" gradientUnits="userSpaceOnUse">
<stop stop-color="#FE226A"/>
<stop offset="1" stop-color="#7750E7"/>
</linearGradient>
<linearGradient id="paint24_linear_1_1013" x1="122.883" y1="253.15" x2="151.814" y2="275.745" gradientUnits="userSpaceOnUse">
<stop stop-color="#FE226A"/>
<stop offset="1" stop-color="#7750E7"/>
</linearGradient>
<linearGradient id="paint25_linear_1_1013" x1="174.083" y1="210.483" x2="203.014" y2="233.078" gradientUnits="userSpaceOnUse">
<stop stop-color="#FE226A"/>
<stop offset="1" stop-color="#7750E7"/>
</linearGradient>
<linearGradient id="paint26_linear_1_1013" x1="174.083" y1="253.15" x2="203.014" y2="275.745" gradientUnits="userSpaceOnUse">
<stop stop-color="#FE226A"/>
<stop offset="1" stop-color="#7750E7"/>
</linearGradient>
<linearGradient id="paint27_linear_1_1013" x1="237.233" y1="194.367" x2="251.588" y2="227.999" gradientUnits="userSpaceOnUse">
<stop stop-color="#FE226A"/>
<stop offset="1" stop-color="#7750E7"/>
</linearGradient>
<linearGradient id="paint28_linear_1_1013" x1="237.233" y1="279.7" x2="251.588" y2="313.333" gradientUnits="userSpaceOnUse">
<stop stop-color="#FE226A"/>
<stop offset="1" stop-color="#7750E7"/>
</linearGradient>
<linearGradient id="paint29_linear_1_1013" x1="225.283" y1="210.483" x2="254.214" y2="233.078" gradientUnits="userSpaceOnUse">
<stop stop-color="#FE226A"/>
<stop offset="1" stop-color="#7750E7"/>
</linearGradient>
<linearGradient id="paint30_linear_1_1013" x1="225.283" y1="253.15" x2="254.214" y2="275.745" gradientUnits="userSpaceOnUse">
<stop stop-color="#FE226A"/>
<stop offset="1" stop-color="#7750E7"/>
</linearGradient>
<linearGradient id="paint31_linear_1_1013" x1="276.483" y1="210.483" x2="305.415" y2="233.078" gradientUnits="userSpaceOnUse">
<stop stop-color="#FE226A"/>
<stop offset="1" stop-color="#7750E7"/>
</linearGradient>
<linearGradient id="paint32_linear_1_1013" x1="276.483" y1="253.15" x2="305.415" y2="275.745" gradientUnits="userSpaceOnUse">
<stop stop-color="#FE226A"/>
<stop offset="1" stop-color="#7750E7"/>
</linearGradient>
<linearGradient id="paint33_linear_1_1013" x1="322.567" y1="194.367" x2="336.922" y2="227.999" gradientUnits="userSpaceOnUse">
<stop stop-color="#FE226A"/>
<stop offset="1" stop-color="#7750E7"/>
</linearGradient>
<linearGradient id="paint34_linear_1_1013" x1="322.567" y1="279.7" x2="336.922" y2="313.333" gradientUnits="userSpaceOnUse">
<stop stop-color="#FE226A"/>
<stop offset="1" stop-color="#7750E7"/>
</linearGradient>
<linearGradient id="paint35_linear_1_1013" x1="310.617" y1="210.483" x2="339.548" y2="233.078" gradientUnits="userSpaceOnUse">
<stop stop-color="#FE226A"/>
<stop offset="1" stop-color="#7750E7"/>
</linearGradient>
<linearGradient id="paint36_linear_1_1013" x1="310.617" y1="253.15" x2="339.548" y2="275.745" gradientUnits="userSpaceOnUse">
<stop stop-color="#FE226A"/>
<stop offset="1" stop-color="#7750E7"/>
</linearGradient>
<linearGradient id="paint37_linear_1_1013" x1="361.817" y1="210.483" x2="390.748" y2="233.078" gradientUnits="userSpaceOnUse">
<stop stop-color="#FE226A"/>
<stop offset="1" stop-color="#7750E7"/>
</linearGradient>
<linearGradient id="paint38_linear_1_1013" x1="361.817" y1="253.15" x2="390.748" y2="275.745" gradientUnits="userSpaceOnUse">
<stop stop-color="#FE226A"/>
<stop offset="1" stop-color="#7750E7"/>
</linearGradient>
<linearGradient id="paint39_linear_1_1013" x1="199.683" y1="279.7" x2="219.317" y2="302.7" gradientUnits="userSpaceOnUse">
<stop stop-color="#FE226A"/>
<stop offset="1" stop-color="#7750E7"/>
</linearGradient>
<clipPath id="clip0_1_1013">
<rect width="512" height="512" fill="white"/>
</clipPath>
</defs>
</svg>
