<svg width="645" height="306" viewBox="0 0 645 306" fill="none" xmlns="http://www.w3.org/2000/svg">
<path d="M293.821 306C304.413 306 313.038 297.266 313.038 286.538V19.4615C313.038 14.2888 317.183 10.0912 322.291 10.0912C327.398 10.0912 331.543 14.2888 331.543 19.4615V286.538C331.543 297.266 340.168 306 350.76 306C361.352 306 369.977 297.266 369.977 286.538V90.3118C369.977 85.139 374.122 80.9414 379.23 80.9414C384.337 80.9414 388.482 85.139 388.482 90.3118V240.492C388.482 251.219 397.107 259.954 407.699 259.954C418.291 259.954 426.916 251.219 426.916 240.492V136.358C426.916 131.185 431.061 126.988 436.168 126.988C441.276 126.988 445.421 131.185 445.421 136.358V205.046C445.421 215.773 454.045 224.507 464.638 224.507C475.23 224.507 483.855 215.773 483.855 205.046V115.116C483.855 109.943 487.999 105.745 493.107 105.745C498.215 105.745 502.36 109.943 502.36 115.116V205.046C502.36 215.773 510.984 224.507 521.577 224.507C532.169 224.507 540.794 215.773 540.794 205.046V197.032C540.794 191.859 544.938 187.662 550.046 187.662C555.154 187.662 559.299 191.859 559.299 197.032C559.299 207.759 567.923 216.494 578.516 216.494H640.018C642.781 216.494 645 214.247 645 211.448C645 208.65 642.781 206.403 640.018 206.403H578.725C573.617 206.403 569.472 202.205 569.472 197.032C569.472 186.305 560.848 177.571 550.255 177.571C539.663 177.571 531.039 186.305 531.039 197.032V205.046C531.039 210.219 526.894 214.416 521.786 214.416C516.678 214.416 512.533 210.219 512.533 205.046V115.116C512.533 104.389 503.909 95.6541 493.317 95.6541C482.724 95.6541 474.1 104.389 474.1 115.116V205.046C474.1 210.219 469.955 214.416 464.847 214.416C459.739 214.416 455.595 210.219 455.595 205.046V136.358C455.595 125.631 446.97 116.896 436.378 116.896C425.785 116.896 417.161 125.631 417.161 136.358V240.492C417.161 245.665 413.016 249.863 407.908 249.863C402.801 249.863 398.656 245.665 398.656 240.492V90.3118C398.656 79.5846 390.031 70.8502 379.439 70.8502C368.847 70.8502 360.222 79.5846 360.222 90.3118V286.538C360.222 291.711 356.077 295.909 350.969 295.909C345.862 295.909 341.717 291.711 341.717 286.538V19.4615C341.717 8.73438 333.092 0 322.5 0C311.908 0 303.283 8.73438 303.283 19.4615V286.538C303.283 291.711 299.138 295.909 294.031 295.909C288.923 295.909 284.778 291.711 284.778 286.538V90.3118C284.778 79.5846 276.153 70.8502 265.561 70.8502C254.969 70.8502 246.344 79.5846 246.344 90.3118V240.492C246.344 245.665 242.199 249.863 237.092 249.863C231.984 249.863 227.839 245.665 227.839 240.492V136.358C227.839 125.631 219.215 116.896 208.622 116.896C198.03 116.896 189.405 125.631 189.405 136.358V205.046C189.405 210.219 185.261 214.416 180.153 214.416C175.045 214.416 170.9 210.219 170.9 205.046V115.116C170.9 104.389 162.276 95.6541 151.683 95.6541C141.091 95.6541 132.467 104.389 132.467 115.116V205.046C132.467 210.219 128.322 214.416 123.214 214.416C118.106 214.416 113.961 210.219 113.961 205.046V197.032C113.961 186.305 105.337 177.571 94.7445 177.571C84.1522 177.571 75.5277 186.305 75.5277 197.032C75.5277 202.205 71.3829 206.403 66.2751 206.403H4.98213C2.21892 206.403 -3.28656e-05 208.65 -3.28656e-05 211.448C-3.28656e-05 214.247 2.21892 216.494 4.98213 216.494H66.2751C76.8674 216.494 85.492 207.759 85.492 197.032C85.492 191.859 89.6368 187.662 94.7445 187.662C99.8523 187.662 103.997 191.859 103.997 197.032V205.046C103.997 215.773 112.622 224.507 123.214 224.507C133.806 224.507 142.431 215.773 142.431 205.046V115.116C142.431 109.943 146.576 105.745 151.683 105.745C156.791 105.745 160.936 109.943 160.936 115.116V205.046C160.936 215.773 169.561 224.507 180.153 224.507C190.745 224.507 199.37 215.773 199.37 205.046V136.358C199.37 131.185 203.514 126.988 208.622 126.988C213.73 126.988 217.875 131.185 217.875 136.358V240.492C217.875 251.219 226.499 259.954 237.092 259.954C247.684 259.954 256.309 251.219 256.309 240.492V90.3118C256.309 85.139 260.453 80.9414 265.561 80.9414C270.669 80.9414 274.814 85.139 274.814 90.3118V286.538C274.814 297.266 283.438 306 294.031 306H293.821Z" fill="url(#paint0_linear_11_45)" fill-opacity="0.6"/>
<path d="M174.045 202.209H135V145.492H174.045V156.843H146.4V168.194H165.108V179.546H146.4V190.858H174.045V202.209Z" fill="white"/>
<path d="M216.864 168.274L208.92 176.223C208.522 175.116 207.98 174.127 207.291 173.257C206.603 172.361 205.821 171.609 204.948 171.003C204.1 170.396 203.173 169.935 202.167 169.618C201.161 169.302 200.128 169.144 199.069 169.144C197.586 169.144 196.183 169.447 194.859 170.053C193.561 170.66 192.422 171.517 191.443 172.624C190.489 173.705 189.735 174.997 189.179 176.5C188.622 178.003 188.344 179.664 188.344 181.484C188.344 182.96 188.622 184.345 189.179 185.637C189.735 186.929 190.489 188.063 191.443 189.038C192.422 190.014 193.561 190.779 194.859 191.332C196.183 191.886 197.586 192.163 199.069 192.163C200.128 192.163 201.148 192.018 202.127 191.728C203.107 191.438 204.021 191.029 204.868 190.502C205.742 189.948 206.51 189.289 207.172 188.524C207.86 187.733 208.416 186.863 208.84 185.914L216.784 193.864C215.778 195.287 214.613 196.566 213.289 197.7C211.991 198.834 210.575 199.796 209.039 200.587C207.529 201.378 205.927 201.972 204.233 202.367C202.564 202.789 200.843 203 199.069 203C196.077 203 193.257 202.446 190.609 201.339C187.987 200.205 185.683 198.662 183.697 196.711C181.738 194.76 180.189 192.479 179.05 189.869C177.911 187.258 177.342 184.463 177.342 181.484C177.342 178.241 177.911 175.208 179.05 172.387C180.189 169.566 181.738 167.113 183.697 165.03C185.683 162.921 187.987 161.26 190.609 160.047C193.257 158.834 196.077 158.227 199.069 158.227C200.843 158.227 202.578 158.452 204.272 158.9C205.994 159.348 207.622 160.007 209.158 160.877C210.72 161.721 212.15 162.763 213.448 164.002C214.772 165.241 215.91 166.665 216.864 168.274Z" fill="white"/>
<path d="M233.03 202.209H222.186V143H233.03V161.708C234.327 160.732 235.665 160.047 237.042 159.651C238.419 159.229 239.822 159.018 241.252 159.018C243.874 159.018 246.336 159.519 248.64 160.521C250.944 161.497 252.943 162.855 254.638 164.595C256.359 166.309 257.709 168.326 258.689 170.647C259.695 172.941 260.199 175.393 260.199 178.003V202.209H249.275V178.003H249.355C249.355 176.896 249.143 175.854 248.719 174.879C248.296 173.877 247.713 173.007 246.972 172.268C246.23 171.53 245.37 170.95 244.39 170.528C243.41 170.106 242.364 169.895 241.252 169.895C240.113 169.895 239.041 170.106 238.035 170.528C237.028 170.95 236.155 171.53 235.413 172.268C234.672 173.007 234.089 173.877 233.665 174.879C233.242 175.854 233.03 176.896 233.03 178.003V202.209Z" fill="white"/>
<path d="M309.055 180.653C309.055 183.817 308.485 186.771 307.347 189.513C306.208 192.229 304.659 194.589 302.699 196.593C300.74 198.57 298.436 200.139 295.788 201.299C293.167 202.433 290.346 203 287.328 203C284.335 203 281.515 202.433 278.867 201.299C276.246 200.139 273.942 198.57 271.956 196.593C269.996 194.589 268.447 192.229 267.309 189.513C266.17 186.771 265.601 183.817 265.601 180.653C265.601 177.436 266.17 174.457 267.309 171.715C268.447 168.972 269.996 166.612 271.956 164.635C273.942 162.631 276.246 161.062 278.867 159.928C281.515 158.794 284.335 158.227 287.328 158.227C290.346 158.227 293.167 158.768 295.788 159.849C298.436 160.904 300.74 162.42 302.699 164.397C304.659 166.349 306.208 168.709 307.347 171.477C308.485 174.22 309.055 177.278 309.055 180.653ZM298.132 180.653C298.132 178.913 297.84 177.344 297.258 175.947C296.702 174.523 295.934 173.31 294.954 172.308C293.974 171.279 292.822 170.502 291.498 169.974C290.201 169.421 288.811 169.144 287.328 169.144C285.845 169.144 284.441 169.421 283.117 169.974C281.82 170.502 280.681 171.279 279.701 172.308C278.748 173.31 277.993 174.523 277.437 175.947C276.881 177.344 276.603 178.913 276.603 180.653C276.603 182.288 276.881 183.804 277.437 185.202C277.993 186.599 278.748 187.812 279.701 188.84C280.681 189.869 281.82 190.686 283.117 191.293C284.441 191.873 285.845 192.163 287.328 192.163C288.811 192.163 290.201 191.886 291.498 191.332C292.822 190.779 293.974 190.001 294.954 188.999C295.934 187.997 296.702 186.784 297.258 185.36C297.84 183.936 298.132 182.367 298.132 180.653Z" fill="white"/>
<path d="M372.726 185.993C372.726 188.339 372.276 190.554 371.376 192.637C370.502 194.694 369.284 196.5 367.722 198.056C366.186 199.585 364.372 200.798 362.28 201.695C360.214 202.565 358.003 203 355.647 203C353.528 203 351.489 202.631 349.53 201.893C347.597 201.154 345.849 200.073 344.287 198.649C342.724 200.073 340.963 201.154 339.004 201.893C337.044 202.631 335.005 203 332.887 203C330.53 203 328.306 202.565 326.214 201.695C324.148 200.798 322.334 199.585 320.772 198.056C319.236 196.5 318.018 194.694 317.118 192.637C316.244 190.554 315.807 188.339 315.807 185.993V145.492H327.207V185.993C327.207 186.784 327.353 187.535 327.644 188.247C327.935 188.933 328.332 189.539 328.835 190.067C329.365 190.568 329.974 190.963 330.663 191.253C331.351 191.543 332.092 191.688 332.887 191.688C333.681 191.688 334.423 191.543 335.111 191.253C335.8 190.963 336.396 190.568 336.899 190.067C337.428 189.539 337.839 188.933 338.13 188.247C338.421 187.535 338.567 186.784 338.567 185.993V145.492H349.967V185.993C349.967 186.784 350.112 187.535 350.404 188.247C350.695 188.933 351.092 189.539 351.595 190.067C352.125 190.568 352.734 190.963 353.422 191.253C354.111 191.543 354.852 191.688 355.647 191.688C356.441 191.688 357.182 191.543 357.871 191.253C358.559 190.963 359.155 190.568 359.658 190.067C360.188 189.539 360.598 188.933 360.89 188.247C361.207 187.535 361.366 186.784 361.366 185.993V145.492H372.726V185.993Z" fill="white"/>
<path d="M422.417 202.209H419.795L415.585 196.395C414.552 197.318 413.453 198.188 412.288 199.005C411.149 199.796 409.944 200.495 408.673 201.102C407.402 201.682 406.092 202.143 404.741 202.486C403.417 202.829 402.067 203 400.69 203C397.697 203 394.877 202.499 392.229 201.497C389.608 200.495 387.304 199.045 385.318 197.146C383.358 195.221 381.809 192.875 380.67 190.106C379.532 187.338 378.963 184.187 378.963 180.653C378.963 177.357 379.532 174.338 380.67 171.596C381.809 168.827 383.358 166.454 385.318 164.477C387.304 162.499 389.608 160.97 392.229 159.889C394.877 158.781 397.697 158.227 400.69 158.227C402.067 158.227 403.43 158.399 404.781 158.742C406.131 159.084 407.442 159.559 408.713 160.165C409.984 160.772 411.189 161.484 412.328 162.301C413.493 163.119 414.578 164.002 415.585 164.951L419.795 159.928H422.417V202.209ZM411.493 180.653C411.493 179.177 411.202 177.753 410.62 176.382C410.064 174.984 409.296 173.758 408.316 172.703C407.336 171.622 406.184 170.765 404.86 170.132C403.563 169.473 402.172 169.144 400.69 169.144C399.207 169.144 397.803 169.394 396.479 169.895C395.182 170.396 394.043 171.134 393.063 172.11C392.11 173.086 391.355 174.299 390.799 175.749C390.243 177.173 389.965 178.808 389.965 180.653C389.965 182.499 390.243 184.147 390.799 185.597C391.355 187.021 392.11 188.221 393.063 189.196C394.043 190.172 395.182 190.91 396.479 191.411C397.803 191.912 399.207 192.163 400.69 192.163C402.172 192.163 403.563 191.846 404.86 191.214C406.184 190.554 407.336 189.697 408.316 188.643C409.296 187.562 410.064 186.336 410.62 184.964C411.202 183.567 411.493 182.13 411.493 180.653Z" fill="white"/>
<path d="M442.793 202.209L426.587 159.849H438.94L448.235 186.27L457.49 159.849H469.882L453.677 202.209H442.793Z" fill="white"/>
<path d="M489.663 191.846C490.087 191.978 490.511 192.071 490.934 192.123C491.358 192.15 491.782 192.163 492.205 192.163C493.264 192.163 494.284 192.018 495.264 191.728C496.244 191.438 497.157 191.029 498.004 190.502C498.878 189.948 499.646 189.289 500.308 188.524C500.997 187.733 501.553 186.863 501.976 185.914L509.921 193.864C508.914 195.287 507.749 196.566 506.425 197.7C505.128 198.834 503.711 199.796 502.175 200.587C500.666 201.378 499.064 201.972 497.369 202.367C495.701 202.789 493.979 203 492.205 203C489.213 203 486.393 202.446 483.745 201.339C481.123 200.231 478.82 198.689 476.833 196.711C474.874 194.734 473.325 192.387 472.186 189.671C471.048 186.929 470.478 183.923 470.478 180.653C470.478 177.305 471.048 174.246 472.186 171.477C473.325 168.709 474.874 166.349 476.833 164.397C478.82 162.446 481.123 160.93 483.745 159.849C486.393 158.768 489.213 158.227 492.205 158.227C493.979 158.227 495.714 158.438 497.409 158.86C499.103 159.282 500.705 159.889 502.215 160.68C503.751 161.471 505.181 162.446 506.505 163.606C507.829 164.74 508.994 166.019 510 167.443L489.663 191.846ZM495.224 169.579C494.721 169.394 494.218 169.276 493.715 169.223C493.238 169.17 492.735 169.144 492.205 169.144C490.722 169.144 489.319 169.421 487.995 169.974C486.697 170.502 485.559 171.266 484.579 172.268C483.626 173.27 482.871 174.483 482.315 175.907C481.759 177.305 481.481 178.887 481.481 180.653C481.481 181.049 481.494 181.497 481.52 181.998C481.573 182.499 481.64 183.013 481.719 183.541C481.825 184.042 481.944 184.529 482.077 185.004C482.209 185.479 482.381 185.9 482.593 186.27L495.224 169.579Z" fill="white"/>
<defs>
<linearGradient id="paint0_linear_11_45" x1="644.958" y1="152.979" x2="-75.0689" y2="152.999" gradientUnits="userSpaceOnUse">
<stop stop-color="#FF7433"/>
<stop offset="0.434732" stop-color="#7750E7"/>
<stop offset="0.793329" stop-color="#FE226A"/>
</linearGradient>
</defs>
</svg>
